<?xml version="1.0" encoding="utf-8"?>
<!-- Generator: Adobe Illustrator 27.5.0, SVG Export Plug-In . SVG Version: 6.00 Build 0)  -->
<svg version="1.1" xmlns="http://www.w3.org/2000/svg" xmlns:xlink="http://www.w3.org/1999/xlink" x="0px" y="0px"
	 viewBox="0 0 400 400" style="enable-background:new 0 0 400 400;" xml:space="preserve">
<style type="text/css">
	.st0{display:none;}
	.st1{display:inline;fill:#FFFFFF;stroke:#000000;stroke-width:14;stroke-miterlimit:10;}
	.st2{display:inline;stroke:#FFFFFF;stroke-width:4;stroke-miterlimit:10;}
	.st3{display:inline;fill:none;stroke:#FFFFFF;stroke-width:5;stroke-miterlimit:10;}
	.st4{stroke:#000000;stroke-width:0.5;stroke-miterlimit:10;}
	.st5{fill:none;stroke:#000000;stroke-width:0.5;stroke-miterlimit:10;}
	.st6{fill:none;stroke:#000000;stroke-width:10;stroke-miterlimit:10;}
</style>
<g id="Слой_1" class="st0">
	<circle class="st1" cx="200" cy="200" r="192.05"/>
	<path class="st1" d="M117.4,304.79"/>
	<polyline class="st1" points="292.44,357.42 292.44,292.44 292.44,107.56 107.56,107.56 107.56,117.17 107.56,292.44 
		107.56,357.42 	"/>
	<path class="st1" d="M107.56,107.56l7.02,9.49l80.36,108.6c2.52,3.4,7.61,3.4,10.13,0l87.38-118.09H107.56z"/>
	<line class="st1" x1="31.62" y1="107.56" x2="368.38" y2="107.56"/>
	<line class="st1" x1="107.56" y1="368.37" x2="107.56" y2="292.44"/>
	<line class="st1" x1="292.44" y1="368.37" x2="292.44" y2="292.44"/>
	<path class="st2" d="M361.81,114.47c-4.19-7.72-5.72-10.73-8.34-14.36L47.21,99.17c-3.64,4.47-6.56,9.13-9.06,14.83L361.81,114.47z
		"/>
	<line class="st3" x1="97.19" y1="122.21" x2="97.19" y2="114.47"/>
</g>
<g id="Слой_2">
	<path class="st4" d="M195,106.15v1.21c0,2.76-2.29,5-5.12,5H50.74c-3.17,0-5.74-2.51-5.74-5.61v0c0-3.1,2.57-5.61,5.74-5.61h139.14
		C192.71,101.15,195,103.39,195,106.15z"/>
	<path class="st4" d="M355,106.15v1.21c0,2.76-2.12,5-4.74,5H209.74c-2.62,0-4.74-2.24-4.74-5v-1.21c0-2.76,2.12-5,4.74-5h140.53
		C352.88,101.15,355,103.39,355,106.15z"/>
	<path class="st5" d="M200,101.15"/>
	<path class="st5" d="M200,112.36"/>
	<path class="st5" d="M200,206.29"/>
	<path class="st4" d="M109.3,356.02h-3.72c-2.76,0-5-2.24-5-5V119.47c0-2.76,2.24-5,5-5h3.72c2.76,0,5,2.24,5,5v231.55
		C114.3,353.78,112.06,356.02,109.3,356.02z"/>
	<path class="st4" d="M294.42,356.02h-3.72c-2.76,0-5-2.24-5-5V119.47c0-2.76,2.24-5,5-5h3.72c2.76,0,5,2.24,5,5v231.55
		C299.42,353.78,297.18,356.02,294.42,356.02z"/>
	<path class="st4" d="M279.67,125.85L207.88,233.4l-0.18,0.26c-3.74,5.6-11.65,5.6-15.39,0l-0.18-0.27l-71.8-107.54
		c-1.48-2.23-0.97-5.3,1.16-6.87l2.87-2.1c2.12-1.56,5.05-1.02,6.54,1.21L200,221.61l69.1-103.51c1.48-2.23,4.42-2.77,6.54-1.21
		l2.87,2.1C280.64,120.55,281.15,123.63,279.67,125.85z"/>
	<circle class="st6" cx="200" cy="200" r="190.83"/>
</g>
</svg>
